<?xml version="1.0" encoding="UTF-8"?>
<!DOCTYPE svg PUBLIC "-//W3C//DTD SVG 1.1//EN" "http://www.w3.org/Graphics/SVG/1.1/DTD/svg11.dtd">
<svg xmlns="http://www.w3.org/2000/svg" version="1.1" width="512px" height="512px" style="shape-rendering:geometricPrecision; text-rendering:geometricPrecision; image-rendering:optimizeQuality; fill-rule:evenodd; clip-rule:evenodd" xmlns:xlink="http://www.w3.org/1999/xlink">
<g><path style="opacity:0.976" fill="#000000" d="M 85.5,207.5 C 115.16,204.564 134.326,217.231 143,245.5C 146.421,275.18 133.921,294.346 105.5,303C 75.8205,306.421 56.6538,293.921 48,265.5C 44.699,235.735 57.199,216.402 85.5,207.5 Z"/></g>
<g><path style="opacity:0.976" fill="#000000" d="M 245.5,207.5 C 275.16,204.564 294.326,217.231 303,245.5C 306.421,275.18 293.921,294.346 265.5,303C 235.82,306.421 216.654,293.921 208,265.5C 204.699,235.735 217.199,216.402 245.5,207.5 Z"/></g>
<g><path style="opacity:0.976" fill="#000000" d="M 405.5,207.5 C 435.16,204.564 454.326,217.231 463,245.5C 466.421,275.18 453.921,294.346 425.5,303C 395.82,306.421 376.654,293.921 368,265.5C 364.699,235.735 377.199,216.402 405.5,207.5 Z"/></g>
</svg>
