<?xml version="1.0" encoding="UTF-8"?>
<!DOCTYPE svg PUBLIC "-//W3C//DTD SVG 1.1//EN" "http://www.w3.org/Graphics/SVG/1.1/DTD/svg11.dtd">
<svg xmlns="http://www.w3.org/2000/svg" version="1.1" width="512px" height="512px" style="shape-rendering:geometricPrecision; text-rendering:geometricPrecision; image-rendering:optimizeQuality; fill-rule:evenodd; clip-rule:evenodd" xmlns:xlink="http://www.w3.org/1999/xlink">
<g><path style="opacity:0.976" fill="#000000" d="M 511.5,307.5 C 511.5,319.833 511.5,332.167 511.5,344.5C 501.368,408.13 466.702,452.63 407.5,478C 353.723,496.563 303.056,490.396 255.5,459.5C 200.016,494.563 142.683,497.729 83.5,469C 35.7083,440.934 7.7083,399.434 -0.5,344.5C -0.5,332.167 -0.5,319.833 -0.5,307.5C 8.50215,248.345 39.6688,205.345 93,178.5C 96.3832,125.552 119.217,83.3856 161.5,52C 212.78,18.6059 266.78,13.6059 323.5,37C 381.163,66.435 412.829,113.602 418.5,178.5C 471.554,205.56 502.554,248.56 511.5,307.5 Z M 244.5,65.5 C 303.635,64.1955 344.802,90.5288 368,144.5C 383.158,193.702 372.658,236.535 336.5,273C 330.974,277.36 325.307,281.526 319.5,285.5C 300.447,222.612 259.114,183.112 195.5,167C 176.561,163.117 157.561,162.617 138.5,165.5C 147.876,115.604 177.21,83.4375 226.5,69C 232.626,67.7408 238.626,66.5741 244.5,65.5 Z M 150.5,206.5 C 176.422,204.814 200.422,210.648 222.5,224C 185.638,273.362 177.471,327.195 198,385.5C 204.129,401.103 212.296,415.436 222.5,428.5C 180.576,451.598 138.909,451.098 97.5,427C 48.2458,391.239 32.0791,344.072 49,285.5C 67.8523,239.834 101.686,213.5 150.5,206.5 Z M 412.5,225.5 C 425.964,232.79 437.13,242.79 446,255.5C 474.305,298.402 476.305,342.402 452,387.5C 423.19,430.983 382.69,449.816 330.5,444C 276.823,432.489 243.823,399.989 231.5,346.5C 296.163,353.079 348.33,330.745 388,279.5C 399.689,263.12 407.856,245.12 412.5,225.5 Z"/></g>
</svg>
